<svg width="128" height="128" viewBox="0 0 128 128" fill="none" xmlns="http://www.w3.org/2000/svg">
<g clip-path="url(#clip0_1_2)">
<path d="M50 12.3703L93.3013 87.3703H6.69873L50 12.3703Z" fill="url(#paint0_linear_1_2)"/>
<path d="M80 112.37L36.6987 37.3703L123.301 37.3703L80 112.37Z" fill="url(#paint1_radial_1_2)"/>
<path d="M79.952 34.3085C79.6533 34.4738 79.1867 34.5565 78.552 34.5565C77.64 34.5565 76.912 34.2792 76.368 33.7245C75.8293 33.1592 75.56 32.4152 75.56 31.4925C75.56 30.5805 75.8347 29.8418 76.384 29.2765C76.9333 28.7112 77.656 28.4285 78.552 28.4285C79.2027 28.4285 79.6693 28.5005 79.952 28.6445L79.888 29.4605C79.5253 29.3165 79.08 29.2445 78.552 29.2445C77.9067 29.2445 77.392 29.4525 77.008 29.8685C76.624 30.2845 76.432 30.8258 76.432 31.4925C76.432 32.1858 76.6187 32.7298 76.992 33.1245C77.3707 33.5352 77.8907 33.7405 78.552 33.7405C79.112 33.7405 79.5573 33.6525 79.888 33.4765L79.952 34.3085ZM83.9805 29.2205C83.4258 29.2205 82.9885 29.4552 82.6685 29.9245C82.3752 30.3458 82.2285 30.8685 82.2285 31.4925C82.2285 32.1218 82.3752 32.6472 82.6685 33.0685C82.9885 33.5378 83.4258 33.7725 83.9805 33.7725C84.5352 33.7725 84.9725 33.5378 85.2925 33.0685C85.5805 32.6472 85.7245 32.1218 85.7245 31.4925C85.7245 30.8738 85.5805 30.3512 85.2925 29.9245C84.9725 29.4552 84.5352 29.2205 83.9805 29.2205ZM83.9805 28.4125C84.8338 28.4125 85.4978 28.7298 85.9725 29.3645C86.3938 29.9298 86.6018 30.6392 86.5965 31.4925C86.5858 32.4258 86.3672 33.1618 85.9405 33.7005C85.4765 34.2872 84.8232 34.5805 83.9805 34.5805C83.1432 34.5805 82.4872 34.2872 82.0125 33.7005C81.5752 33.1512 81.3565 32.4152 81.3565 31.4925C81.3565 30.6285 81.5645 29.9165 81.9805 29.3565C82.4498 28.7272 83.1165 28.4125 83.9805 28.4125ZM92.2294 34.4845H91.2694L88.7094 30.0125V34.4845H87.8454V28.5165H88.7654L91.3654 33.0605V28.5165H92.2294V34.4845ZM96.4259 29.4365C96.1592 29.3032 95.8019 29.2365 95.3539 29.2365C94.6605 29.2365 94.3139 29.4925 94.3139 30.0045C94.3139 30.2498 94.5299 30.5085 94.9619 30.7805C95.3192 31.0098 95.5992 31.1912 95.8019 31.3245C96.0045 31.4578 96.1272 31.5458 96.1699 31.5885C96.6019 31.9672 96.8179 32.4045 96.8179 32.9005C96.8179 33.4552 96.6045 33.8898 96.1779 34.2045C95.8152 34.4712 95.3805 34.6045 94.8739 34.6045C94.3672 34.6045 93.9032 34.5112 93.4819 34.3245L93.5859 33.4365C93.9859 33.6605 94.4259 33.7725 94.9059 33.7725C95.6152 33.7725 95.9699 33.4605 95.9699 32.8365C95.9699 32.5912 95.7539 32.3245 95.3219 32.0365C94.9325 31.7752 94.6365 31.5752 94.4339 31.4365C94.2365 31.2978 94.1299 31.2232 94.1139 31.2125C93.6872 30.8445 93.4739 30.4418 93.4739 30.0045C93.4739 29.5085 93.6659 29.1112 94.0499 28.8125C94.3965 28.5458 94.8339 28.4125 95.3619 28.4125C95.7992 28.4125 96.2019 28.4818 96.5699 28.6205L96.4259 29.4365ZM102.377 28.5165V32.3805C102.377 33.1805 102.124 33.7698 101.617 34.1485C101.239 34.4365 100.769 34.5805 100.209 34.5805C99.6546 34.5805 99.1853 34.4365 98.8013 34.1485C98.2999 33.7752 98.0493 33.1858 98.0493 32.3805V28.5165H98.9213V32.3405C98.9213 32.7725 99.0306 33.1138 99.2493 33.3645C99.4733 33.6312 99.7933 33.7645 100.209 33.7645C100.625 33.7645 100.951 33.6312 101.185 33.3645C101.399 33.1192 101.505 32.7778 101.505 32.3405V28.5165H102.377ZM110.006 34.4845H109.15V29.8685L107.334 34.4445H106.63L104.75 29.8685V34.4845H103.886V28.5165H105.038L106.974 33.2605L108.854 28.5165H110.006V34.4845ZM114.668 34.4845H111.628V28.5165H114.58V29.3325H112.5V30.9965H114.468V31.8125H112.5V33.6605H114.668V34.4845ZM116.899 30.9805H117.307C117.659 30.9805 117.936 30.9165 118.139 30.7885C118.384 30.6445 118.507 30.4258 118.507 30.1325C118.507 29.7858 118.403 29.5592 118.195 29.4525C118.051 29.3832 117.758 29.3485 117.315 29.3485H116.899V30.9805ZM119.875 34.4525H118.955L118.091 32.4525C117.974 32.1805 117.867 32.0098 117.771 31.9405C117.654 31.8498 117.467 31.8045 117.211 31.8045H116.899V34.4525H116.043V28.5325H117.611C118.784 28.5325 119.371 29.0658 119.371 30.1325C119.371 30.4845 119.262 30.7778 119.043 31.0125C118.824 31.2472 118.539 31.3992 118.187 31.4685C118.486 31.5272 118.707 31.7245 118.851 32.0605L119.875 34.4525ZM123.567 29.4365C123.3 29.3032 122.943 29.2365 122.495 29.2365C121.801 29.2365 121.455 29.4925 121.455 30.0045C121.455 30.2498 121.671 30.5085 122.103 30.7805C122.46 31.0098 122.74 31.1912 122.943 31.3245C123.145 31.4578 123.268 31.5458 123.311 31.5885C123.743 31.9672 123.959 32.4045 123.959 32.9005C123.959 33.4552 123.745 33.8898 123.319 34.2045C122.956 34.4712 122.521 34.6045 122.015 34.6045C121.508 34.6045 121.044 34.5112 120.623 34.3245L120.727 33.4365C121.127 33.6605 121.567 33.7725 122.047 33.7725C122.756 33.7725 123.111 33.4605 123.111 32.8365C123.111 32.5912 122.895 32.3245 122.463 32.0365C122.073 31.7752 121.777 31.5752 121.575 31.4365C121.377 31.2978 121.271 31.2232 121.255 31.2125C120.828 30.8445 120.615 30.4418 120.615 30.0045C120.615 29.5085 120.807 29.1112 121.191 28.8125C121.537 28.5458 121.975 28.4125 122.503 28.4125C122.94 28.4125 123.343 28.4818 123.711 28.6205L123.567 29.4365Z" fill="black"/>
<path d="M8.504 91.9639C8.23733 91.8306 7.88 91.7639 7.432 91.7639C6.73867 91.7639 6.392 92.0199 6.392 92.5319C6.392 92.7772 6.608 93.0359 7.04 93.3079C7.39733 93.5372 7.67733 93.7186 7.88 93.8519C8.08267 93.9852 8.20533 94.0732 8.248 94.1159C8.68 94.4946 8.896 94.9319 8.896 95.4279C8.896 95.9826 8.68267 96.4172 8.256 96.7319C7.89333 96.9986 7.45867 97.1319 6.952 97.1319C6.44533 97.1319 5.98133 97.0386 5.56 96.8519L5.664 95.9639C6.064 96.1879 6.504 96.2999 6.984 96.2999C7.69333 96.2999 8.048 95.9879 8.048 95.3639C8.048 95.1186 7.832 94.8519 7.4 94.5639C7.01067 94.3026 6.71467 94.1026 6.512 93.9639C6.31467 93.8252 6.208 93.7506 6.192 93.7399C5.76533 93.3719 5.552 92.9692 5.552 92.5319C5.552 92.0359 5.744 91.6386 6.128 91.3399C6.47467 91.0732 6.912 90.9399 7.44 90.9399C7.87733 90.9399 8.28 91.0092 8.648 91.1479L8.504 91.9639ZM13.6394 91.8519H12.0154V96.9799H11.1434V91.8519H9.52738V91.0599H13.6394V91.8519ZM17.6948 94.6599L16.7268 92.1959L15.7508 94.6599H17.6948ZM19.5508 97.0119H18.6228L18.0148 95.4839H15.4228L14.8068 97.0119H13.8868L16.3188 91.0439H17.1908L19.5508 97.0119ZM24.8153 97.0119H23.8553L21.2953 92.5399V97.0119H20.4313V91.0439H21.3513L23.9513 95.5879V91.0439H24.8153V97.0119ZM27.1398 96.1559H27.4278C29.0491 96.1559 29.8598 95.4306 29.8598 93.9799C29.8598 92.5772 29.1665 91.8759 27.7798 91.8759H27.1398V96.1559ZM26.2678 91.0599H27.7798C28.7825 91.0599 29.5371 91.3372 30.0438 91.8919C30.4971 92.3932 30.7238 93.0972 30.7238 94.0039C30.7238 95.0279 30.3985 95.7932 29.7478 96.2999C29.1771 96.7532 28.3851 96.9799 27.3718 96.9799H26.2678V91.0599ZM35.2963 94.6599L34.3283 92.1959L33.3523 94.6599H35.2963ZM37.1523 97.0119H36.2243L35.6163 95.4839H33.0243L32.4083 97.0119H31.4883L33.9203 91.0439H34.7923L37.1523 97.0119ZM38.9849 93.5079H39.3929C39.7449 93.5079 40.0222 93.4439 40.2249 93.3159C40.4702 93.1719 40.5929 92.9532 40.5929 92.6599C40.5929 92.3132 40.4889 92.0866 40.2809 91.9799C40.1369 91.9106 39.8435 91.8759 39.4009 91.8759H38.9849V93.5079ZM41.9609 96.9799H41.0409L40.1769 94.9799C40.0595 94.7079 39.9529 94.5372 39.8569 94.4679C39.7395 94.3772 39.5529 94.3319 39.2969 94.3319H38.9849V96.9799H38.1289V91.0599H39.6969C40.8702 91.0599 41.4569 91.5932 41.4569 92.6599C41.4569 93.0119 41.3475 93.3052 41.1289 93.5399C40.9102 93.7746 40.6249 93.9266 40.2729 93.9959C40.5715 94.0546 40.7929 94.2519 40.9369 94.5879L41.9609 96.9799ZM43.7804 96.1559H44.0684C45.6898 96.1559 46.5004 95.4306 46.5004 93.9799C46.5004 92.5772 45.8071 91.8759 44.4204 91.8759H43.7804V96.1559ZM42.9084 91.0599H44.4204C45.4231 91.0599 46.1778 91.3372 46.6844 91.8919C47.1378 92.3932 47.3644 93.0972 47.3644 94.0039C47.3644 95.0279 47.0391 95.7932 46.3884 96.2999C45.8178 96.7532 45.0258 96.9799 44.0124 96.9799H42.9084V91.0599ZM51.4649 91.9639C51.1983 91.8306 50.8409 91.7639 50.3929 91.7639C49.6996 91.7639 49.3529 92.0199 49.3529 92.5319C49.3529 92.7772 49.5689 93.0359 50.0009 93.3079C50.3583 93.5372 50.6383 93.7186 50.8409 93.8519C51.0436 93.9852 51.1663 94.0732 51.2089 94.1159C51.6409 94.4946 51.8569 94.9319 51.8569 95.4279C51.8569 95.9826 51.6436 96.4172 51.2169 96.7319C50.8543 96.9986 50.4196 97.1319 49.9129 97.1319C49.4063 97.1319 48.9423 97.0386 48.5209 96.8519L48.6249 95.9639C49.0249 96.1879 49.4649 96.2999 49.9449 96.2999C50.6543 96.2999 51.0089 95.9879 51.0089 95.3639C51.0089 95.1186 50.7929 94.8519 50.3609 94.5639C49.9716 94.3026 49.6756 94.1026 49.4729 93.9639C49.2756 93.8252 49.1689 93.7506 49.1529 93.7399C48.7263 93.3719 48.5129 92.9692 48.5129 92.5319C48.5129 92.0359 48.7049 91.6386 49.0889 91.3399C49.4356 91.0732 49.8729 90.9399 50.4009 90.9399C50.8383 90.9399 51.2409 91.0092 51.6089 91.1479L51.4649 91.9639Z" fill="black"/>
</g>
<defs>
<linearGradient id="paint0_linear_1_2" x1="93.3841" y1="86.4262" x2="50" y2="12.3703" gradientUnits="userSpaceOnUse">
<stop stop-color="#363636"/>
<stop offset="1" stop-color="#232323"/>
</linearGradient>
<radialGradient id="paint1_radial_1_2" cx="0" cy="0" r="1" gradientUnits="userSpaceOnUse" gradientTransform="translate(36.5462 37.5242) rotate(59.8616) scale(86.5458)">
<stop stop-color="#979797"/>
<stop offset="0.805" stop-color="#232323"/>
</radialGradient>
<clipPath id="clip0_1_2">
<rect width="128" height="128" fill="white"/>
</clipPath>
</defs>
</svg>
