<svg width="596" height="128" viewBox="0 0 596 128" fill="none" xmlns="http://www.w3.org/2000/svg">
<g clip-path="url(#clip0_1_2)">
<path d="M50 12.3703L93.3013 87.3703H6.69873L50 12.3703Z" fill="url(#paint0_linear_1_2)"/>
<path d="M80 112.37L36.6987 37.3703L123.301 37.3703L80 112.37Z" fill="url(#paint1_radial_1_2)"/>
<path d="M163.246 73.9C161.902 74.644 159.802 75.016 156.946 75.016C152.842 75.016 149.566 73.768 147.118 71.272C144.694 68.728 143.482 65.38 143.482 61.228C143.482 57.124 144.718 53.8 147.19 51.256C149.662 48.712 152.914 47.44 156.946 47.44C159.874 47.44 161.974 47.764 163.246 48.412L162.958 52.084C161.326 51.436 159.322 51.112 156.946 51.112C154.042 51.112 151.726 52.048 149.998 53.92C148.27 55.792 147.406 58.228 147.406 61.228C147.406 64.348 148.246 66.796 149.926 68.572C151.63 70.42 153.97 71.344 156.946 71.344C159.466 71.344 161.47 70.948 162.958 70.156L163.246 73.9ZM181.375 51.004C178.879 51.004 176.911 52.06 175.471 54.172C174.151 56.068 173.491 58.42 173.491 61.228C173.491 64.06 174.151 66.424 175.471 68.32C176.911 70.432 178.879 71.488 181.375 71.488C183.871 71.488 185.839 70.432 187.279 68.32C188.575 66.424 189.223 64.06 189.223 61.228C189.223 58.444 188.575 56.092 187.279 54.172C185.839 52.06 183.871 51.004 181.375 51.004ZM181.375 47.368C185.215 47.368 188.203 48.796 190.339 51.652C192.235 54.196 193.171 57.388 193.147 61.228C193.099 65.428 192.115 68.74 190.195 71.164C188.107 73.804 185.167 75.124 181.375 75.124C177.607 75.124 174.655 73.804 172.519 71.164C170.551 68.692 169.567 65.38 169.567 61.228C169.567 57.34 170.503 54.136 172.375 51.616C174.487 48.784 177.487 47.368 181.375 47.368ZM218.495 74.692H214.175L202.655 54.568V74.692H198.767V47.836H202.907L214.607 68.284V47.836H218.495V74.692ZM237.379 51.976C236.179 51.376 234.571 51.076 232.555 51.076C229.435 51.076 227.875 52.228 227.875 54.532C227.875 55.636 228.847 56.8 230.791 58.024C232.399 59.056 233.659 59.872 234.571 60.472C235.483 61.072 236.035 61.468 236.227 61.66C238.171 63.364 239.143 65.332 239.143 67.564C239.143 70.06 238.183 72.016 236.263 73.432C234.631 74.632 232.675 75.232 230.395 75.232C228.115 75.232 226.027 74.812 224.131 73.972L224.599 69.976C226.399 70.984 228.379 71.488 230.539 71.488C233.731 71.488 235.327 70.084 235.327 67.276C235.327 66.172 234.355 64.972 232.411 63.676C230.659 62.5 229.327 61.6 228.415 60.976C227.527 60.352 227.047 60.016 226.975 59.968C225.055 58.312 224.095 56.5 224.095 54.532C224.095 52.3 224.959 50.512 226.687 49.168C228.247 47.968 230.215 47.368 232.591 47.368C234.559 47.368 236.371 47.68 238.027 48.304L237.379 51.976ZM264.16 47.836V65.224C264.16 68.824 263.02 71.476 260.74 73.18C259.036 74.476 256.924 75.124 254.404 75.124C251.908 75.124 249.796 74.476 248.068 73.18C245.812 71.5 244.684 68.848 244.684 65.224V47.836H248.608V65.044C248.608 66.988 249.1 68.524 250.084 69.652C251.092 70.852 252.532 71.452 254.404 71.452C256.276 71.452 257.74 70.852 258.796 69.652C259.756 68.548 260.236 67.012 260.236 65.044V47.836H264.16ZM298.487 74.692H294.635V53.92L286.463 74.512H283.295L274.835 53.92V74.692H270.947V47.836H276.131L284.843 69.184L293.303 47.836H298.487V74.692ZM319.466 74.692H305.786V47.836H319.07V51.508H309.71V58.996H318.566V62.668H309.71V70.984H319.466V74.692ZM329.508 58.924H331.344C332.928 58.924 334.176 58.636 335.088 58.06C336.192 57.412 336.744 56.428 336.744 55.108C336.744 53.548 336.276 52.528 335.34 52.048C334.692 51.736 333.372 51.58 331.38 51.58H329.508V58.924ZM342.9 74.548H338.76L334.872 65.548C334.344 64.324 333.864 63.556 333.432 63.244C332.904 62.836 332.064 62.632 330.912 62.632H329.508V74.548H325.656V47.908H332.712C337.992 47.908 340.632 50.308 340.632 55.108C340.632 56.692 340.14 58.012 339.156 59.068C338.172 60.124 336.888 60.808 335.304 61.12C336.648 61.384 337.644 62.272 338.292 63.784L342.9 74.548ZM359.512 51.976C358.312 51.376 356.704 51.076 354.688 51.076C351.568 51.076 350.008 52.228 350.008 54.532C350.008 55.636 350.98 56.8 352.924 58.024C354.532 59.056 355.792 59.872 356.704 60.472C357.616 61.072 358.168 61.468 358.36 61.66C360.304 63.364 361.276 65.332 361.276 67.564C361.276 70.06 360.316 72.016 358.396 73.432C356.764 74.632 354.808 75.232 352.528 75.232C350.248 75.232 348.16 74.812 346.264 73.972L346.732 69.976C348.532 70.984 350.512 71.488 352.672 71.488C355.864 71.488 357.46 70.084 357.46 67.276C357.46 66.172 356.488 64.972 354.544 63.676C352.792 62.5 351.46 61.6 350.548 60.976C349.66 60.352 349.18 60.016 349.108 59.968C347.188 58.312 346.228 56.5 346.228 54.532C346.228 52.3 347.092 50.512 348.82 49.168C350.38 47.968 352.348 47.368 354.724 47.368C356.692 47.368 358.504 47.68 360.16 48.304L359.512 51.976ZM389.219 51.976C388.019 51.376 386.411 51.076 384.395 51.076C381.275 51.076 379.715 52.228 379.715 54.532C379.715 55.636 380.687 56.8 382.631 58.024C384.239 59.056 385.499 59.872 386.411 60.472C387.323 61.072 387.875 61.468 388.067 61.66C390.011 63.364 390.983 65.332 390.983 67.564C390.983 70.06 390.023 72.016 388.103 73.432C386.471 74.632 384.515 75.232 382.235 75.232C379.955 75.232 377.867 74.812 375.971 73.972L376.439 69.976C378.239 70.984 380.219 71.488 382.379 71.488C385.571 71.488 387.167 70.084 387.167 67.276C387.167 66.172 386.195 64.972 384.251 63.676C382.499 62.5 381.167 61.6 380.255 60.976C379.367 60.352 378.887 60.016 378.815 59.968C376.895 58.312 375.935 56.5 375.935 54.532C375.935 52.3 376.799 50.512 378.527 49.168C380.087 47.968 382.055 47.368 384.431 47.368C386.399 47.368 388.211 47.68 389.867 48.304L389.219 51.976ZM412.328 51.472H405.02V74.548H401.096V51.472H393.824V47.908H412.328V51.472ZM430.577 64.108L426.221 53.02L421.829 64.108H430.577ZM438.929 74.692H434.753L432.017 67.816H420.353L417.581 74.692H413.441L424.385 47.836H428.309L438.929 74.692ZM462.62 74.692H458.3L446.78 54.568V74.692H442.892V47.836H447.032L458.732 68.284V47.836H462.62V74.692ZM473.08 70.84H474.376C481.672 70.84 485.32 67.576 485.32 61.048C485.32 54.736 482.2 51.58 475.96 51.58H473.08V70.84ZM469.156 47.908H475.96C480.472 47.908 483.868 49.156 486.148 51.652C488.188 53.908 489.208 57.076 489.208 61.156C489.208 65.764 487.744 69.208 484.816 71.488C482.248 73.528 478.684 74.548 474.124 74.548H469.156V47.908ZM509.784 64.108L505.428 53.02L501.036 64.108H509.784ZM518.136 74.692H513.96L511.224 67.816H499.56L496.788 74.692H492.648L503.592 47.836H507.516L518.136 74.692ZM526.383 58.924H528.219C529.803 58.924 531.051 58.636 531.963 58.06C533.067 57.412 533.619 56.428 533.619 55.108C533.619 53.548 533.151 52.528 532.215 52.048C531.567 51.736 530.247 51.58 528.255 51.58H526.383V58.924ZM539.775 74.548H535.635L531.747 65.548C531.219 64.324 530.739 63.556 530.307 63.244C529.779 62.836 528.939 62.632 527.787 62.632H526.383V74.548H522.531V47.908H529.587C534.867 47.908 537.507 50.308 537.507 55.108C537.507 56.692 537.015 58.012 536.031 59.068C535.047 60.124 533.763 60.808 532.179 61.12C533.523 61.384 534.519 62.272 535.167 63.784L539.775 74.548ZM547.963 70.84H549.259C556.555 70.84 560.203 67.576 560.203 61.048C560.203 54.736 557.083 51.58 550.843 51.58H547.963V70.84ZM544.039 47.908H550.843C555.355 47.908 558.751 49.156 561.031 51.652C563.071 53.908 564.091 57.076 564.091 61.156C564.091 65.764 562.627 69.208 559.699 71.488C557.131 73.528 553.567 74.548 549.007 74.548H544.039V47.908ZM582.543 51.976C581.343 51.376 579.735 51.076 577.719 51.076C574.599 51.076 573.039 52.228 573.039 54.532C573.039 55.636 574.011 56.8 575.955 58.024C577.563 59.056 578.823 59.872 579.735 60.472C580.647 61.072 581.199 61.468 581.391 61.66C583.335 63.364 584.307 65.332 584.307 67.564C584.307 70.06 583.347 72.016 581.427 73.432C579.795 74.632 577.839 75.232 575.559 75.232C573.279 75.232 571.191 74.812 569.295 73.972L569.763 69.976C571.563 70.984 573.543 71.488 575.703 71.488C578.895 71.488 580.491 70.084 580.491 67.276C580.491 66.172 579.519 64.972 577.575 63.676C575.823 62.5 574.491 61.6 573.579 60.976C572.691 60.352 572.211 60.016 572.139 59.968C570.219 58.312 569.259 56.5 569.259 54.532C569.259 52.3 570.123 50.512 571.851 49.168C573.411 47.968 575.379 47.368 577.755 47.368C579.723 47.368 581.535 47.68 583.191 48.304L582.543 51.976Z" fill="black"/>
</g>
<defs>
<linearGradient id="paint0_linear_1_2" x1="93.3841" y1="86.4262" x2="50" y2="12.3703" gradientUnits="userSpaceOnUse">
<stop stop-color="#363636"/>
<stop offset="1" stop-color="#232323"/>
</linearGradient>
<radialGradient id="paint1_radial_1_2" cx="0" cy="0" r="1" gradientUnits="userSpaceOnUse" gradientTransform="translate(36.5462 37.5242) rotate(59.8616) scale(86.5458)">
<stop stop-color="#979797"/>
<stop offset="0.805" stop-color="#232323"/>
</radialGradient>
<clipPath id="clip0_1_2">
<rect width="596" height="128" fill="white"/>
</clipPath>
</defs>
</svg>
